<svg id="visual" viewBox="0 0 900 600" width="900" height="600" xmlns="http://www.w3.org/2000/svg" xmlns:xlink="http://www.w3.org/1999/xlink" version="1.1"><path d="M0 115L13.7 106C27.3 97 54.7 79 82 75C109.3 71 136.7 81 163.8 83C191 85 218 79 245.2 78C272.3 77 299.7 81 327 86C354.3 91 381.7 97 409 101C436.3 105 463.7 107 491 112C518.3 117 545.7 125 573 121C600.3 117 627.7 101 654.8 103C682 105 709 125 736.2 121C763.3 117 790.7 89 818 81C845.3 73 872.7 85 886.3 91L900 97L900 0L886.3 0C872.7 0 845.3 0 818 0C790.7 0 763.3 0 736.2 0C709 0 682 0 654.8 0C627.7 0 600.3 0 573 0C545.7 0 518.3 0 491 0C463.7 0 436.3 0 409 0C381.7 0 354.3 0 327 0C299.7 0 272.3 0 245.2 0C218 0 191 0 163.8 0C136.7 0 109.3 0 82 0C54.7 0 27.3 0 13.7 0L0 0Z" fill="#810ca8"></path><path d="M0 235L13.7 244C27.3 253 54.7 271 82 273C109.3 275 136.7 261 163.8 245C191 229 218 211 245.2 223C272.3 235 299.7 277 327 301C354.3 325 381.7 331 409 327C436.3 323 463.7 309 491 290C518.3 271 545.7 247 573 250C600.3 253 627.7 283 654.8 295C682 307 709 301 736.2 282C763.3 263 790.7 231 818 237C845.3 243 872.7 287 886.3 309L900 331L900 95L886.3 89C872.7 83 845.3 71 818 79C790.7 87 763.3 115 736.2 119C709 123 682 103 654.8 101C627.7 99 600.3 115 573 119C545.7 123 518.3 115 491 110C463.7 105 436.3 103 409 99C381.7 95 354.3 89 327 84C299.7 79 272.3 75 245.2 76C218 77 191 83 163.8 81C136.7 79 109.3 69 82 73C54.7 77 27.3 95 13.7 104L0 113Z" fill="#6b098b"></path><path d="M0 493L13.7 486C27.3 479 54.7 465 82 455C109.3 445 136.7 439 163.8 446C191 453 218 473 245.2 477C272.3 481 299.7 469 327 469C354.3 469 381.7 481 409 481C436.3 481 463.7 469 491 453C518.3 437 545.7 417 573 418C600.3 419 627.7 441 654.8 449C682 457 709 451 736.2 445C763.3 439 790.7 433 818 434C845.3 435 872.7 443 886.3 447L900 451L900 329L886.3 307C872.7 285 845.3 241 818 235C790.7 229 763.3 261 736.2 280C709 299 682 305 654.8 293C627.7 281 600.3 251 573 248C545.7 245 518.3 269 491 288C463.7 307 436.3 321 409 325C381.7 329 354.3 323 327 299C299.7 275 272.3 233 245.2 221C218 209 191 227 163.8 243C136.7 259 109.3 273 82 271C54.7 269 27.3 251 13.7 242L0 233Z" fill="#55076f"></path><path d="M0 565L13.7 560C27.3 555 54.7 545 82 543C109.3 541 136.7 547 163.8 552C191 557 218 561 245.2 561C272.3 561 299.7 557 327 552C354.3 547 381.7 541 409 534C436.3 527 463.7 519 491 515C518.3 511 545.7 511 573 514C600.3 517 627.7 523 654.8 532C682 541 709 553 736.2 558C763.3 563 790.7 561 818 560C845.3 559 872.7 559 886.3 559L900 559L900 449L886.3 445C872.7 441 845.3 433 818 432C790.7 431 763.3 437 736.2 443C709 449 682 455 654.8 447C627.7 439 600.3 417 573 416C545.7 415 518.3 435 491 451C463.7 467 436.3 479 409 479C381.7 479 354.3 467 327 467C299.7 467 272.3 479 245.2 475C218 471 191 451 163.8 444C136.7 437 109.3 443 82 453C54.7 463 27.3 477 13.7 484L0 491Z" fill="#410554"></path><path d="M0 601L13.7 601C27.3 601 54.7 601 82 601C109.3 601 136.7 601 163.8 601C191 601 218 601 245.2 601C272.3 601 299.7 601 327 601C354.3 601 381.7 601 409 601C436.3 601 463.7 601 491 601C518.3 601 545.7 601 573 601C600.3 601 627.7 601 654.8 601C682 601 709 601 736.2 601C763.3 601 790.7 601 818 601C845.3 601 872.7 601 886.3 601L900 601L900 557L886.3 557C872.7 557 845.3 557 818 558C790.7 559 763.3 561 736.2 556C709 551 682 539 654.8 530C627.7 521 600.3 515 573 512C545.7 509 518.3 509 491 513C463.7 517 436.3 525 409 532C381.7 539 354.3 545 327 550C299.7 555 272.3 559 245.2 559C218 559 191 555 163.8 550C136.7 545 109.3 539 82 541C54.7 543 27.3 553 13.7 558L0 563Z" fill="#2d033b"></path></svg>