<svg id="visual" viewBox="0 0 900 600" width="900" height="600" xmlns="http://www.w3.org/2000/svg" xmlns:xlink="http://www.w3.org/1999/xlink" version="1.1"><path d="M0 55L15 60C30 65 60 75 90 78C120 81 150 77 180 76C210 75 240 77 270 83C300 89 330 99 360 100C390 101 420 93 450 87C480 81 510 77 540 82C570 87 600 101 630 105C660 109 690 103 720 99C750 95 780 93 810 95C840 97 870 103 885 106L900 109L900 0L885 0C870 0 840 0 810 0C780 0 750 0 720 0C690 0 660 0 630 0C600 0 570 0 540 0C510 0 480 0 450 0C420 0 390 0 360 0C330 0 300 0 270 0C240 0 210 0 180 0C150 0 120 0 90 0C60 0 30 0 15 0L0 0Z" fill="#c147e9"></path><path d="M0 187L15 194C30 201 60 215 90 220C120 225 150 221 180 208C210 195 240 173 270 176C300 179 330 207 360 207C390 207 420 179 450 168C480 157 510 163 540 177C570 191 600 213 630 224C660 235 690 235 720 223C750 211 780 187 810 177C840 167 870 171 885 173L900 175L900 107L885 104C870 101 840 95 810 93C780 91 750 93 720 97C690 101 660 107 630 103C600 99 570 85 540 80C510 75 480 79 450 85C420 91 390 99 360 98C330 97 300 87 270 81C240 75 210 73 180 74C150 75 120 79 90 76C60 73 30 63 15 58L0 53Z" fill="#b13ad8"></path><path d="M0 331L15 350C30 369 60 407 90 421C120 435 150 425 180 419C210 413 240 411 270 408C300 405 330 401 360 384C390 367 420 337 450 323C480 309 510 311 540 325C570 339 600 365 630 379C660 393 690 395 720 400C750 405 780 413 810 395C840 377 870 333 885 311L900 289L900 173L885 171C870 169 840 165 810 175C780 185 750 209 720 221C690 233 660 233 630 222C600 211 570 189 540 175C510 161 480 155 450 166C420 177 390 205 360 205C330 205 300 177 270 174C240 171 210 193 180 206C150 219 120 223 90 218C60 213 30 199 15 192L0 185Z" fill="#a12dc8"></path><path d="M0 547L15 547C30 547 60 547 90 543C120 539 150 531 180 526C210 521 240 519 270 525C300 531 330 545 360 546C390 547 420 535 450 532C480 529 510 535 540 535C570 535 600 529 630 524C660 519 690 515 720 516C750 517 780 523 810 522C840 521 870 513 885 509L900 505L900 287L885 309C870 331 840 375 810 393C780 411 750 403 720 398C690 393 660 391 630 377C600 363 570 337 540 323C510 309 480 307 450 321C420 335 390 365 360 382C330 399 300 403 270 406C240 409 210 411 180 417C150 423 120 433 90 419C60 405 30 367 15 348L0 329Z" fill="#911eb8"></path><path d="M0 601L15 601C30 601 60 601 90 601C120 601 150 601 180 601C210 601 240 601 270 601C300 601 330 601 360 601C390 601 420 601 450 601C480 601 510 601 540 601C570 601 600 601 630 601C660 601 690 601 720 601C750 601 780 601 810 601C840 601 870 601 885 601L900 601L900 503L885 507C870 511 840 519 810 520C780 521 750 515 720 514C690 513 660 517 630 522C600 527 570 533 540 533C510 533 480 527 450 530C420 533 390 545 360 544C330 543 300 529 270 523C240 517 210 519 180 524C150 529 120 537 90 541C60 545 30 545 15 545L0 545Z" fill="#810ca8"></path></svg>